# xmcd
#
# Track frame offsets:
#	150
#	20390
#	37573
#	54649
#	72020
#	88671
#	105589
#	127395
#	146501
#	160965
#	176370
#	193793
#	211638
#	225200
#	238961
#	255766
#
# Disc length: 3671 seconds
#
# Revision: 0
# Processed by: cddbd v1.4PL0 Copyright (c) Steve Scherf et al.
# Submitted via: EasyCDDAExtractor 4.6.9.1
#
DISCID=c90e5510
DTITLE=Σφακιανάκης Νότης - Πολύχρωμα and έντονα
DYEAR=2000
DGENRE=Λαϊκό
TTITLE0=Δεν μπορώ να καταλάβω
TTITLE1=Συγχώρεσέ με
TTITLE2=Καίγομαι
TTITLE3=Κάψε
TTITLE4=Εικόνες
TTITLE5=Πάρε με
TTITLE6=Αν
TTITLE7=Θέλω να ζήσω
TTITLE8=Τίποτα
TTITLE9=Δελτίο καρδιάς
TTITLE10=Το σώμα μου αητού φωλιά
TTITLE11=Γύρισε πίσω
TTITLE12=Το φινάλε της καρδιάς
TTITLE13=Ο Θεός να σε φυλάει
TTITLE14=Μάνα, μανούλα μου
TTITLE15=Η πιο γλυκιά πατρίδα
EXTD=
EXTT0=
EXTT1=
EXTT2=
EXTT3=
EXTT4=
EXTT5=
EXTT6=
EXTT7=
EXTT8=
EXTT9=
EXTT10=
EXTT11=
EXTT12=
EXTT13=
EXTT14=
EXTT15=
PLAYORDER=
